{
    "asset" : {
        "generator" : "Khronos glTF Blender I/O v3.3.27",
        "version" : "2.0"
    },
    "scene" : 0,
    "scenes" : [
        {
            "name" : "Scene",
            "nodes" : [
                0
            ]
        }
    ],
    "nodes" : [
        {
            "mesh" : 0,
            "name" : "Combined",
            "translation" : [
                -1.7278132438659668,
                0.05264250189065933,
                -0.020433248952031136
            ]
        }
    ],
    "meshes" : [
        {
            "name" : "Plane.046",
            "primitives" : [
                {
                    "attributes" : {
                        "POSITION" : 0,
                        "NORMAL" : 1,
                        "TEXCOORD_0" : 2
                    },
                    "indices" : 3
                }
            ]
        }
    ],
    "accessors" : [
        {
            "bufferView" : 0,
            "componentType" : 5126,
            "count" : 3820,
            "max" : [
                4.109211444854736,
                0.4156576097011566,
                1.6872997283935547
            ],
            "min" : [
                -0.6115164756774902,
                -0.05445502698421478,
                -2.0426831245422363
            ],
            "type" : "VEC3"
        },
        {
            "bufferView" : 1,
            "componentType" : 5126,
            "count" : 3820,
            "type" : "VEC3"
        },
        {
            "bufferView" : 2,
            "componentType" : 5126,
            "count" : 3820,
            "type" : "VEC2"
        },
        {
            "bufferView" : 3,
            "componentType" : 5123,
            "count" : 7218,
            "type" : "SCALAR"
        }
    ],
    "bufferViews" : [
        {
            "buffer" : 0,
            "byteLength" : 45840,
            "byteOffset" : 0,
            "target" : 34962
        },
        {
            "buffer" : 0,
            "byteLength" : 45840,
            "byteOffset" : 45840,
            "target" : 34962
        },
        {
            "buffer" : 0,
            "byteLength" : 30560,
            "byteOffset" : 91680,
            "target" : 34962
        },
        {
            "buffer" : 0,
            "byteLength" : 14436,
            "byteOffset" : 122240,
            "target" : 34963
        }
    ],
    "buffers" : [
        {
            "byteLength" : 136676,
            "uri" : "data:application/octet-stream;base64,"
        }
    ]
}
