{
    "asset" : {
        "generator" : "Khronos glTF Blender I/O v3.3.27",
        "version" : "2.0"
    },
    "scene" : 0,
    "scenes" : [
        {
            "name" : "Scene",
            "nodes" : [
                0
            ]
        }
    ],
    "nodes" : [
        {
            "mesh" : 0,
            "name" : "Combined",
            "scale" : [
                0.059023935347795486,
                0.32307446002960205,
                0.19393892586231232
            ],
            "translation" : [
                1.7419418096542358,
                0,
                0.04074529558420181
            ]
        }
    ],
    "meshes" : [
        {
            "name" : "Plane.027",
            "primitives" : [
                {
                    "attributes" : {
                        "POSITION" : 0,
                        "NORMAL" : 1,
                        "TEXCOORD_0" : 2
                    },
                    "indices" : 3
                }
            ]
        }
    ],
    "accessors" : [
        {
            "bufferView" : 0,
            "componentType" : 5126,
            "count" : 2128,
            "max" : [
                10.833843231201172,
                1.0722366571426392,
                8.384706497192383
            ],
            "min" : [
                -69.14604187011719,
                0,
                -10.848063468933105
            ],
            "type" : "VEC3"
        },
        {
            "bufferView" : 1,
            "componentType" : 5126,
            "count" : 2128,
            "type" : "VEC3"
        },
        {
            "bufferView" : 2,
            "componentType" : 5126,
            "count" : 2128,
            "type" : "VEC2"
        },
        {
            "bufferView" : 3,
            "componentType" : 5123,
            "count" : 4542,
            "type" : "SCALAR"
        }
    ],
    "bufferViews" : [
        {
            "buffer" : 0,
            "byteLength" : 25536,
            "byteOffset" : 0,
            "target" : 34962
        },
        {
            "buffer" : 0,
            "byteLength" : 25536,
            "byteOffset" : 25536,
            "target" : 34962
        },
        {
            "buffer" : 0,
            "byteLength" : 17024,
            "byteOffset" : 51072,
            "target" : 34962
        },
        {
            "buffer" : 0,
            "byteLength" : 9084,
            "byteOffset" : 68096,
            "target" : 34963
        }
    ],
    "buffers" : [
        {
            "byteLength" : 77180,
            "uri" : "data:application/octet-stream;base64,"
        }
    ]
}
